# xmcd
#
# Track frame offsets: 
#        300
#        19664
#        39274
#        56296
#        87051
#        107400
#        128170
#        149288
#
# Disc length: 2274 seconds
#
# Revision: 0
# Processed by: cddbd v1.5.2PL0 Copyright (c) Steve Scherf et al.
# Submitted via: ExactAudioCopyFreeDBPlugin 1.0
#
DISCID=5908de08
DTITLE=Cirkl - Fables of a Faraway Land
DYEAR=2014
DGENRE=Electronic
TTITLE0=The Meeting
TTITLE1=Linnu Lend
TTITLE2=Jag Talar Med Katter
TTITLE3=Kompositsioon Sekstetile
TTITLE4=Fool's Gold
TTITLE5=Belle Fleur
TTITLE6=Malmö
TTITLE7=Fables of a Faraway Land
EXTD=
EXTT0=
EXTT1=
EXTT2=
EXTT3=
EXTT4=
EXTT5=
EXTT6=
EXTT7=
PLAYORDER=
